<?xml version="1.0" encoding="utf-8"?>
<!-- Generator: Adobe Illustrator 17.1.0, SVG Export Plug-In . SVG Version: 6.00 Build 0)  -->
<!DOCTYPE svg PUBLIC "-//W3C//DTD SVG 1.1//EN" "http://www.w3.org/Graphics/SVG/1.1/DTD/svg11.dtd">
<svg version="1.1" id="Layer_1" xmlns="http://www.w3.org/2000/svg" xmlns:xlink="http://www.w3.org/1999/xlink" x="0px" y="0px"
	 viewBox="0 0 330.801 94.939" enable-background="new 0 0 330.801 94.939" xml:space="preserve">
<g>
	<defs>
		<rect id="SVGID_1_" x="1" y="1.791" width="327.823" height="92.148"/>
	</defs>
	<clipPath id="SVGID_2_">
		<use xlink:href="#SVGID_1_"  overflow="visible"/>
	</clipPath>
	<path clip-path="url(#SVGID_2_)" fill="#82BC00" d="M328.823,47.865c0-25.446-20.628-46.074-46.074-46.074
		c-16.413,0-30.782,8.608-38.944,21.529c8.776-4.779,19.063-7.035,30.034-7.035c19.25,0,36.457,7.099,47.105,22.8l-2.474,1.935
		c-3.944-4.751-9.528-8.596-16.124-11.412c4.463,4.788,7.214,11.193,7.214,18.256c0,14.807-12.003,26.811-26.811,26.811
		c-14.807,0-26.811-12.004-26.811-26.811c0-10.218,5.719-19.097,14.129-23.621c-11.469,0.515-22.292,3.409-30.718,8.275
		c-1.701,4.806-2.673,9.957-2.673,15.346c0,25.446,20.627,46.074,46.074,46.074C308.195,93.939,328.823,73.311,328.823,47.865"/>
	<path clip-path="url(#SVGID_2_)" fill="#D5D5DD" d="M198.444,79.518c-1.456,1.12-4.464,1.68-9.018,1.68
		c-4.556,0-7.562-0.56-9.018-1.68c-1.456-1.12-2.185-3.098-2.185-5.938V53.079c0-2.913,0.746-4.985,2.241-6.217
		c1.493-1.233,4.481-1.848,8.962-1.848c4.481,0,7.467,0.616,8.962,1.848c1.493,1.232,2.24,3.304,2.24,6.217V73.58
		C200.628,76.419,199.901,78.397,198.444,79.518 M215.248,46.078c-1.158-2.65-2.577-4.686-4.257-6.105
		c-1.68-1.418-3.865-2.52-6.553-3.305c-2.688-0.784-5.098-1.269-7.226-1.456c-2.128-0.185-4.724-0.28-7.785-0.28
		c-3.063,0-5.657,0.095-7.786,0.28c-2.128,0.188-4.537,0.673-7.225,1.456c-2.688,0.785-4.873,1.887-6.553,3.305
		c-1.68,1.42-3.1,3.455-4.257,6.105c-1.159,2.652-1.737,5.845-1.737,9.578v16.02c0,3.511,0.56,6.517,1.68,9.018
		c1.12,2.503,2.502,4.444,4.145,5.825c1.642,1.383,3.79,2.447,6.442,3.192c2.65,0.746,5.078,1.213,7.282,1.401
		c2.202,0.185,4.873,0.28,8.01,0.28s5.806-0.095,8.01-0.28c2.202-0.188,4.63-0.655,7.282-1.401c2.65-0.746,4.797-1.809,6.442-3.192
		c1.642-1.381,3.024-3.322,4.145-5.825c1.12-2.502,1.68-5.507,1.68-9.018v-16.02C216.984,51.922,216.405,48.729,215.248,46.078
		 M154.475,36.432c0,0,0-1.502-1.502-1.502h-4.324c-3.287,0-6.441,1.103-9.466,3.305c-3.025,2.204-4.576,4.65-4.613,5.993
		c0,0-0.037,1.345-0.037-0.547v-5.739c0,0,0-1.892-1.892-1.892h-11.788c0,0-1.892,0-1.892,1.892V88.38c0,0,0,1.892,1.892,1.892
		h12.572c0,0,1.892,0,1.892-1.892V57.672c0-3.361,1.137-5.731,3.417-7.114c2.277-1.381,5.657-2.073,10.138-2.073h3.71
		c0,0,1.892,0,1.892-1.892V36.432z M87.652,79.518c-1.456,1.12-4.463,1.68-9.017,1.68c-4.556,0-7.562-0.56-9.018-1.68
		s-2.185-3.098-2.185-5.938V53.079c0-2.913,0.746-4.985,2.24-6.217c1.493-1.233,4.481-1.848,8.963-1.848
		c4.481,0,7.467,0.616,8.962,1.848c1.493,1.232,2.24,3.304,2.24,6.217V73.58C89.836,76.419,89.108,78.397,87.652,79.518
		 M104.456,46.078c-1.159-2.65-2.577-4.686-4.257-6.105c-1.681-1.418-3.865-2.52-6.554-3.305c-2.689-0.784-5.097-1.269-7.225-1.456
		c-2.128-0.185-4.725-0.28-7.785-0.28c-3.063,0-5.658,0.095-7.786,0.28c-2.128,0.188-4.537,0.673-7.225,1.456
		c-2.688,0.785-4.873,1.887-6.553,3.305c-1.681,1.42-3.1,3.455-4.257,6.105c-1.159,2.652-1.737,5.845-1.737,9.578v16.02
		c0,3.511,0.56,6.517,1.68,9.018c1.12,2.503,2.502,4.444,4.145,5.825c1.642,1.383,3.79,2.447,6.442,3.192
		c2.65,0.746,5.077,1.213,7.282,1.401c2.202,0.185,4.873,0.28,8.01,0.28c3.137,0,5.806-0.095,8.01-0.28
		c2.202-0.188,4.629-0.655,7.282-1.401c2.649-0.746,4.797-1.809,6.441-3.192c1.642-1.381,3.025-3.322,4.145-5.825
		c1.12-2.502,1.681-5.507,1.681-9.018v-16.02C106.193,51.922,105.613,48.729,104.456,46.078 M43.234,80.638
		c-2.615,0.375-4.556,0.56-5.825,0.56c-3.809,0-6.273-0.653-7.394-1.96c-1.121-1.306-1.681-3.827-1.681-7.562v-23.65
		c0,0,0-1.892,1.892-1.892h11.116c0,0,1.892,0,1.892-1.892v-6.299c0,0,0-1.892-1.892-1.892H30.226c0,0-1.892,0-1.892-1.892v-11.9
		c0,0,0-1.892-1.892-1.892H13.871c0,0-1.892,0-1.892,1.892v11.9c0,0,0,1.892-1.892,1.892H2.892c0,0-1.892,0-1.892,1.892v6.299
		c0,0,0,1.892,1.892,1.892h7.195c0,0,1.892,0,1.892,1.892v26.45c0,2.913,0.429,5.433,1.288,7.562
		c0.857,2.128,1.941,3.773,3.249,4.93c1.306,1.158,2.987,2.092,5.041,2.8c2.053,0.709,4.033,1.157,5.937,1.345
		c1.905,0.185,4.126,0.28,6.666,0.28c2.912,0,5.937-0.188,7.505-0.374c0,0,1.568-0.186,1.568-2.078V80.638z"/>
</g>
</svg>
